{"title":"Beroe - PFC Nesebar 09-02-2011","uid":6173595,"size":1196806246,"categoryP":"other","categoryS":"other","magnet":"?xt=urn:btih:862537d050eefe96dbb4b131bee04138f5e17a7f&amp;dn=Beroe+-+PFC+Nesebar+09-02-2011&amp;tr=udp%3A%2F%2Ftracker.openbittorrent.com%3A80&amp;tr=udp%3A%2F%2Fopen.demonii.com%3A1337&amp;tr=udp%3A%2F%2Ftracker.coppersurfer.tk%3A6969&amp;tr=udp%3A%2F%2Fexodus.desync.com%3A6969","seeders":0,"leechers":0,"uploader":"spiralkinda","files":1,"time":1297681998,"description":"Format                           : AVI\nFormat/Info                      : Audio Video Interleave\nFile size                        : 1.11 GiB\nDuration                         : 1h 4mn\nOverall bit rate                 : 2 471 Kbps\nWriting library                  : VirtualDub build 32706/release\n\nVideo\nID                               : 0\nFormat                           : MPEG-4 Visual\nFormat settings, BVOP            : Yes\nFormat settings, QPel            : No\nFormat settings, GMC             : No warppoints\nFormat settings, Matrix          : Default (H.263)\nMuxing mode                      : Packed bitstream\nCodec ID                         : DX50\nCodec ID/Hint                    : DivX 5\nDuration                         : 1h 4mn\nBit rate                         : 2 334 Kbps\nWidth                            : 720 pixels\nHeight                           : 400 pixels\nDisplay aspect ratio             : 16:9\nFrame rate                       : 25.000 fps\nResolution                       : 24 bits\nColorimetry                      : 4:2:0\nScan type                        : Progressive\nBits/(Pixel*Frame)               : 0.324\nStream size                      : 1.05 GiB (94%)\nWriting library                  : DivX 6.8.5 (UTC 2009-08-20)\n\nAudio\nID                               : 1\nFormat                           : AC-3\nFormat/Info                      : Audio Coding 3\nCodec ID                         : 2000\nDuration                         : 1h 4mn\nBit rate mode                    : Constant\nBit rate                         : 128 Kbps\nChannel(s)                       : 2 channels\nChannel positions                : L R\nSampling rate                    : 44.1 KHz\nStream size                      : 59.0 MiB (5%)\nAlignment                        : Aligned on interleaves\nInterleave, duration             : 40 ms (1.00 video frame)\nInterleave, preload duration     : 522 ms\n\n","torrent":{"xt":"urn:btih:862537d050eefe96dbb4b131bee04138f5e17a7f","amp;dn":"Beroe+-+PFC+Nesebar+09-02-2011","amp;tr":["udp%3A%2F%2Ftracker.openbittorrent.com%3A80","udp%3A%2F%2Fopen.demonii.com%3A1337","udp%3A%2F%2Ftracker.coppersurfer.tk%3A6969","udp%3A%2F%2Fexodus.desync.com%3A6969"],"infoHash":"862537d050eefe96dbb4b131bee04138f5e17a7f","infoHashBuffer":{"type":"Buffer","data":[134,37,55,208,80,238,254,150,219,180,177,49,190,224,65,56,245,225,122,127]},"announce":[],"urlList":[]}}